<svg width="21" height="27" viewBox="0 0 21 27" fill="none" xmlns="http://www.w3.org/2000/svg">
<path d="M1.45918 26.25C1.20865 26.2492 0.962552 26.1839 0.744596 26.0604C0.519333 25.9338 0.331759 25.7496 0.201075 25.5267C0.0703917 25.3037 0.00129081 25.0501 0.000845494 24.7917V3.39792C-0.0188687 2.52338 0.306844 1.6763 0.907394 1.04026C1.50794 0.404226 2.33495 0.0304712 3.20918 0H17.2092C18.0834 0.0304712 18.9104 0.404226 19.511 1.04026C20.1115 1.6763 20.4372 2.52338 20.4175 3.39792V24.7917C20.416 25.0462 20.3479 25.2958 20.2199 25.5159C20.092 25.7359 19.9088 25.9186 19.6883 26.0458C19.4667 26.1738 19.2152 26.2412 18.9592 26.2412C18.7032 26.2412 18.4517 26.1738 18.23 26.0458L9.96126 21.3646L2.18835 26.0313C1.96894 26.1674 1.71731 26.2429 1.45918 26.25Z" fill="#ED2A70"/>
</svg>
