<svg width="21" height="27" viewBox="0 0 21 27" fill="none" xmlns="http://www.w3.org/2000/svg">
<path d="M1.67978 26.3375C1.293 26.3375 0.92207 26.1839 0.648579 25.9104C0.375089 25.6369 0.221444 25.2659 0.221444 24.8792L0.00269371 3.5C-0.0148667 3.06592 0.0535648 2.63265 0.204052 2.22511C0.35454 1.81757 0.584113 1.44381 0.87957 1.12531C1.17503 0.806812 1.53054 0.54987 1.92565 0.369261C2.32076 0.188652 2.74768 0.0879398 3.18186 0.0729166L17.1673 0C17.602 0.00759328 18.031 0.10076 18.4298 0.274178C18.8285 0.447596 19.1892 0.697868 19.4912 1.0107C19.7932 1.32353 20.0306 1.69279 20.1898 2.09739C20.3491 2.50199 20.4271 2.934 20.4194 3.36875L20.6235 24.7479C20.626 25.0035 20.5613 25.2552 20.4359 25.4779C20.3105 25.7005 20.1288 25.8863 19.9089 26.0167C19.6873 26.1447 19.4358 26.212 19.1798 26.212C18.9238 26.212 18.6723 26.1447 18.4506 26.0167L10.1381 21.4083L2.42353 26.1188C2.19508 26.2464 1.94093 26.3211 1.67978 26.3375ZM10.0798 18.2438C10.3332 18.2442 10.5829 18.3041 10.8089 18.4188L17.6777 22.225L17.5027 3.33958C17.5027 3.04792 17.3131 2.84375 17.1964 2.85833L3.19644 2.98958C3.07978 2.98958 2.91936 3.17917 2.91936 3.47083L3.09436 22.2833L9.33603 18.4479C9.56271 18.3181 9.81859 18.2479 10.0798 18.2438Z" fill="#ED2A70"/>
</svg>
