<svg
  width="14"
  height="14"
  viewBox="0 0 14 14"
  fill="none"
  xmlns="http://www.w3.org/2000/svg"
>
  <rect width="14" height="14" rx="7" fill="#ED2A70" />
  <path
    d="M3.702 10.05C3.60667 9.95467 3.52433 9.85067 3.455 9.738C3.39433 9.61667 3.35533 9.491 3.338 9.361C3.32933 9.22233 3.34667 9.08367 3.39 8.945C3.442 8.80633 3.53733 8.672 3.676 8.542L5.262 6.956L3.702 5.383C3.39867 5.07967 3.26 4.77633 3.286 4.473C3.32067 4.161 3.45067 3.89233 3.676 3.667C3.90133 3.44167 4.16567 3.316 4.469 3.29C4.781 3.25533 5.08867 3.38967 5.392 3.693L6.952 5.266L8.551 3.667C8.81967 3.39833 9.08833 3.29 9.357 3.342C9.63433 3.38533 9.86833 3.50233 10.059 3.693C10.1543 3.78833 10.2323 3.89667 10.293 4.018C10.3623 4.13933 10.4057 4.26933 10.423 4.408C10.4403 4.54667 10.423 4.68967 10.371 4.837C10.3277 4.97567 10.241 5.11 10.111 5.24L8.525 6.826L10.085 8.386C10.3883 8.68933 10.5227 8.997 10.488 9.309C10.462 9.61233 10.3363 9.87667 10.111 10.102C9.88567 10.3273 9.617 10.4573 9.305 10.492C9.00167 10.518 8.69833 10.3793 8.395 10.076L6.835 8.516L5.249 10.102C5.119 10.232 4.98033 10.323 4.833 10.375C4.69433 10.4183 4.55567 10.4313 4.417 10.414C4.27833 10.3967 4.14833 10.3577 4.027 10.297C3.90567 10.2277 3.79733 10.1453 3.702 10.05Z"
    fill="white"
  />
</svg>