<svg width="40" height="40" viewBox="0 0 28 29" fill="none" xmlns="http://www.w3.org/2000/svg">
<path fill-rule="evenodd" clip-rule="evenodd" d="M14.0004 7.8C10.3846 7.8 7.84615 10.0315 7.84615 12.9C7.84615 14.4206 8.36901 15.7338 9.63565 16.7178L10 17.1V17.7C9.74703 18.265 9.13806 18.6647 8.34679 19.0176C8.01756 19.1645 7.82546 19.2966 7.71798 19.3946C7.67548 19.4333 7.64801 19.465 7.63056 19.4886C7.65774 19.4922 7.69186 19.4956 7.73395 19.4977C7.93898 19.5082 8.24513 19.4842 8.65016 19.3961C9.45596 19.2209 10.2543 18.7334 11.5385 18L12.1538 17.7L12.4615 17.6631C13.1381 17.7 13.4579 17.6631 14.0004 17.6631C17.6162 17.6631 20.1538 15.6936 20.1538 12.825C20.1538 9.95646 17.6162 7.8 14.0004 7.8ZM6.00086 12.825C6.00086 8.98328 9.66376 6 14.0004 6C18.3371 6 22 8.98329 22 12.825C22 16.6667 18.3371 19.65 14.0004 19.65C13.4532 19.65 12.918 19.6031 12.4003 19.5135C11.1128 20.2201 9.9523 20.6527 9.01164 20.8573C8.51053 20.9663 8.04703 21.0159 7.64692 20.9955C7.27757 20.9766 6.82268 20.891 6.49201 20.596C6.17945 20.3172 5.87172 19.791 6.05503 19.1517C6.23207 18.5342 6.80412 18.0447 7.65939 17.6631C7.83438 17.5851 7.96972 17.5 8.0755 17.4119C6.7961 16.2093 6.00086 14.6029 6.00086 12.825Z" fill="#393939"/>
<path d="M26.411 14.4188C26.411 21.8781 20.6753 27.8375 13.7055 27.8375C6.73564 27.8375 1 21.8781 1 14.4188C1 6.95937 6.73564 1 13.7055 1C20.6753 1 26.411 6.95937 26.411 14.4188Z" stroke="black" stroke-width="1.5"/>
</svg>
