<svg width="40" height="40" viewBox="0 0 28 29" fill="none" xmlns="http://www.w3.org/2000/svg">
<path d="M19.5593 8.90666C18.3346 7.67211 16.7182 6.90418 14.9887 6.73526C13.2593 6.56634 11.5252 7.00702 10.0853 7.98131C8.64554 8.95561 7.59026 10.4025 7.10146 12.0725C6.61265 13.7425 6.72094 15.5309 7.40766 17.1295C7.47924 17.2781 7.50272 17.4453 7.47484 17.6079L6.818 20.77C6.79269 20.8912 6.79786 21.0169 6.83303 21.1356C6.86821 21.2543 6.9323 21.3624 7.01953 21.4502C7.09104 21.5213 7.17618 21.5772 7.26983 21.6145C7.36347 21.6517 7.46368 21.6696 7.56441 21.667H7.71369L10.9084 21.0241C11.0707 21.0046 11.2354 21.0278 11.3861 21.0914C12.9823 21.7792 14.7681 21.8876 16.4356 21.3981C18.103 20.9086 19.5478 19.8517 20.5206 18.4097C21.4934 16.9678 21.9335 15.2311 21.7648 13.499C21.5961 11.767 20.8293 10.1482 19.5966 8.92161L19.5593 8.90666ZM20.1788 15.156C20.0329 16.0486 19.6867 16.8963 19.1664 17.6355C18.646 18.3747 17.965 18.9861 17.1746 19.4236C16.3842 19.8611 15.5051 20.1134 14.6033 20.1614C13.7015 20.2095 12.8005 20.0521 11.9683 19.701C11.6731 19.5753 11.356 19.5092 11.0352 19.5067C10.8951 19.5076 10.7553 19.5201 10.6173 19.544L8.51236 19.9701L8.93782 17.8621C9.02255 17.4056 8.96793 16.934 8.78107 16.5091C8.43055 15.6755 8.27336 14.7733 8.32135 13.8701C8.36933 12.967 8.62123 12.0865 9.0581 11.2949C9.49496 10.5034 10.1054 9.82134 10.8435 9.3002C11.5816 8.77906 12.4281 8.43236 13.3193 8.28621C14.2547 8.13245 15.2133 8.20396 16.1157 8.49482C17.0181 8.78567 17.8384 9.28752 18.5087 9.95884C19.179 10.6302 19.6801 11.4517 19.9705 12.3554C20.261 13.2592 20.3324 14.2192 20.1788 15.156Z" fill="#231F20"/>
<path d="M26.411 14.4188C26.411 21.8781 20.6753 27.8375 13.7055 27.8375C6.73564 27.8375 1 21.8781 1 14.4188C1 6.95937 6.73564 1 13.7055 1C20.6753 1 26.411 6.95937 26.411 14.4188Z" stroke="black" stroke-width="2"/>
</svg>
