<svg width="28" height="28" viewBox="0 0 28 28" fill="none" xmlns="http://www.w3.org/2000/svg">
<path fill-rule="evenodd" clip-rule="evenodd" d="M13.9992 3.36C20.3269 3.36 24.7692 7.52538 24.7692 12.88C24.7692 15.7185 23.8542 18.1698 21.6376 20.0066L21 20.72V21.84C21.4427 22.8947 22.5084 23.6407 23.8931 24.2996C24.4693 24.5737 24.8054 24.8204 24.9935 25.0032C25.0679 25.0755 25.116 25.1347 25.1465 25.1787C25.0989 25.1855 25.0392 25.1917 24.9656 25.1957C24.6068 25.2153 24.071 25.1704 23.3622 25.006C21.9521 24.6789 20.5549 23.769 18.3077 22.4L17.2308 21.84L16.6923 21.7712C15.5083 21.84 14.9486 21.7712 13.9992 21.7712C7.6716 21.7712 3.23077 18.0946 3.23077 12.74C3.23077 7.3854 7.6716 3.36 13.9992 3.36ZM27.9985 12.74C27.9985 5.5688 21.5884 0 13.9992 0C6.41006 0 0 5.5688 0 12.74C0 19.9112 6.41006 25.48 13.9992 25.48C14.9569 25.48 15.8935 25.3924 16.7994 25.2251C19.0525 26.5442 21.0835 27.3518 22.7296 27.7336C23.6066 27.937 24.4177 28.0297 25.1179 27.9916C25.7642 27.9564 26.5603 27.7966 27.139 27.2459C27.686 26.7254 28.2245 25.7431 27.9037 24.5498C27.5939 23.3972 26.5928 22.4834 25.0961 21.7712C24.7898 21.6255 24.553 21.4667 24.3679 21.3023C26.6068 19.0573 27.9985 16.0587 27.9985 12.74Z" fill="#393939"/>
</svg>
