<svg width="47" height="47" viewBox="0 0 35 36" fill="none" xmlns="http://www.w3.org/2000/svg">
<path d="M11.4471 24.975L19.6502 20.775C19.7718 20.725 19.8811 20.65 19.9784 20.55C20.0756 20.45 20.1485 20.3375 20.1971 20.2125L24.2804 11.775C24.4263 11.525 24.402 11.306 24.2075 11.118C24.0131 10.931 23.7943 10.9 23.5513 11.025L15.3481 15.225C15.2266 15.275 15.1172 15.35 15.02 15.45C14.9228 15.55 14.8499 15.6625 14.8013 15.7875L10.7179 24.225C10.5721 24.475 10.5964 24.7 10.7909 24.9C10.9853 25.1 11.204 25.125 11.4471 24.975ZM17.4992 19.5C17.086 19.5 16.7399 19.356 16.4609 19.068C16.1809 18.781 16.0409 18.425 16.0409 18C16.0409 17.575 16.1809 17.2185 16.4609 16.9305C16.7399 16.6435 17.086 16.5 17.4992 16.5C17.9124 16.5 18.259 16.6435 18.539 16.9305C18.818 17.2185 18.9575 17.575 18.9575 18C18.9575 18.425 18.818 18.781 18.539 19.068C18.259 19.356 17.9124 19.5 17.4992 19.5ZM17.4992 32.25C15.579 32.25 13.7746 31.875 12.0859 31.125C10.3961 30.375 8.93148 29.3625 7.69189 28.0875C6.45231 26.8125 5.46794 25.306 4.73877 23.568C4.0096 21.831 3.64502 19.975 3.64502 18C3.64502 16.025 4.0096 14.1685 4.73877 12.4305C5.46794 10.6935 6.45231 9.1875 7.69189 7.9125C8.93148 6.6375 10.3961 5.625 12.0859 4.875C13.7746 4.125 15.579 3.75 17.4992 3.75C19.4193 3.75 21.2243 4.125 22.914 4.875C24.6027 5.625 26.0669 6.6375 27.3065 7.9125C28.5461 9.1875 29.5304 10.6935 30.2596 12.4305C30.9888 14.1685 31.3534 16.025 31.3534 18C31.3534 19.975 30.9888 21.831 30.2596 23.568C29.5304 25.306 28.5461 26.8125 27.3065 28.0875C26.0669 29.3625 24.6027 30.375 22.914 31.125C21.2243 31.875 19.4193 32.25 17.4992 32.25ZM17.4992 30C20.7318 30 23.4847 28.8315 25.7577 26.4945C28.0298 24.1565 29.1659 21.325 29.1659 18C29.1659 14.675 28.0298 11.8435 25.7577 9.5055C23.4847 7.1685 20.7318 6 17.4992 6C14.2665 6 11.5142 7.1685 9.2421 9.5055C6.96905 11.8435 5.83252 14.675 5.83252 18C5.83252 21.325 6.96905 24.1565 9.2421 26.4945C11.5142 28.8315 14.2665 30 17.4992 30Z" fill="#393939"/>
</svg>
