<svg width="40" height="40" viewBox="0 0 28 29" fill="none" xmlns="http://www.w3.org/2000/svg">
<path d="M26.411 14.4188C26.411 21.8781 20.6753 27.8375 13.7055 27.8375C6.73564 27.8375 1 21.8781 1 14.4188C1 6.95937 6.73564 1 13.7055 1C20.6753 1 26.411 6.95937 26.411 14.4188Z" stroke="black" stroke-width="2"/>
<path d="M11.5001 14.1665C12.1594 14.1665 12.8038 13.971 13.352 13.6048C13.9001 13.2385 14.3274 12.7179 14.5797 12.1088C14.832 11.4997 14.898 10.8295 14.7694 10.1829C14.6407 9.53631 14.3233 8.94236 13.8571 8.47619C13.3909 8.01001 12.797 7.69255 12.1504 7.56393C11.5038 7.43531 10.8336 7.50132 10.2245 7.75361C9.61538 8.00591 9.09479 8.43315 8.72852 8.98131C8.36224 9.52948 8.16675 10.1739 8.16675 10.8332C8.16675 11.7173 8.51794 12.5651 9.14306 13.1902C9.76818 13.8154 10.616 14.1665 11.5001 14.1665Z" fill="#231F20"/>
<path d="M18.1667 15.8333C18.6612 15.8333 19.1446 15.6866 19.5557 15.4119C19.9668 15.1372 20.2872 14.7468 20.4764 14.29C20.6657 13.8331 20.7152 13.3305 20.6187 12.8455C20.5222 12.3606 20.2841 11.9151 19.9345 11.5655C19.5849 11.2159 19.1394 10.9778 18.6545 10.8813C18.1695 10.7848 17.6669 10.8343 17.21 11.0236C16.7532 11.2128 16.3628 11.5332 16.0881 11.9443C15.8134 12.3554 15.6667 12.8388 15.6667 13.3333C15.6667 13.9963 15.9301 14.6322 16.399 15.101C16.8678 15.5699 17.5037 15.8333 18.1667 15.8333Z" fill="#231F20"/>
<path d="M21.5001 21.6666C21.7211 21.6666 21.9331 21.5788 22.0893 21.4226C22.2456 21.2663 22.3334 21.0543 22.3334 20.8333C22.3327 20.0545 22.1138 19.2914 21.7014 18.6307C21.289 17.97 20.6997 17.4381 20.0004 17.0954C19.301 16.7526 18.5196 16.6127 17.7447 16.6916C16.9699 16.7705 16.2327 17.065 15.6167 17.5416C14.8005 16.7286 13.7618 16.1755 12.6316 15.952C11.5014 15.7285 10.3303 15.8447 9.2661 16.2859C8.20186 16.7271 7.29209 17.4736 6.65153 18.4312C6.01097 19.3887 5.66831 20.5146 5.66675 21.6666C5.66675 21.8876 5.75455 22.0996 5.91083 22.2559C6.06711 22.4122 6.27907 22.5 6.50008 22.5H16.5001C16.7211 22.5 16.9331 22.4122 17.0893 22.2559C17.2456 22.0996 17.3334 21.8876 17.3334 21.6666" fill="#231F20"/>
</svg>
