<svg width="40" height="40" viewBox="0 0 40 40" fill="none" xmlns="http://www.w3.org/2000/svg">
<g clip-path="url(#clip0_327_55)">
<path d="M20 40C31.0457 40 40 31.0457 40 20C40 8.9543 31.0457 0 20 0C8.9543 0 0 8.9543 0 20C0 31.0457 8.9543 40 20 40Z" fill="#CDCDCD"/>
<mask id="mask0_327_55" style="mask-type:alpha" maskUnits="userSpaceOnUse" x="5" y="5" width="30" height="30">
<path d="M34.4443 5.55566H5.55542V34.4446H34.4443V5.55566Z" fill="#D9D9D9"/>
</mask>
<g mask="url(#mask0_327_55)">
<path d="M28.8171 16.3876L23.6713 11.2718L25.2963 9.61675C25.7777 9.13527 26.3696 8.89453 27.0717 8.89453C27.7739 8.89453 28.3757 9.13527 28.8773 9.61675L30.4421 11.2117C30.9436 11.6931 31.1992 12.2749 31.2089 12.957C31.2193 13.6391 30.9838 14.2209 30.5023 14.7024L28.8171 16.3876ZM10.4907 30.9524C10.1095 30.9524 9.78373 30.8172 9.5133 30.5468C9.24206 30.2755 9.10645 29.9493 9.10645 29.5681V26.3783C9.10645 26.1978 9.14175 26.022 9.21237 25.8511C9.28219 25.681 9.3873 25.5257 9.52773 25.3853L21.9259 12.9871L27.0717 18.133L14.6736 30.5311C14.5331 30.6715 14.3827 30.7771 14.2222 30.8477C14.0617 30.9175 13.8811 30.9524 13.6805 30.9524H10.4907Z" fill="#1C1B1F"/>
</g>
</g>
<defs>
<clipPath id="clip0_327_55">
<rect width="40" height="40" fill="white"/>
</clipPath>
</defs>
</svg>
