<svg width="21" height="18" viewBox="0 0 21 18" fill="none" xmlns="http://www.w3.org/2000/svg">
<path d="M8.93015 17.4017L7.12868 15.831C5.31005 14.2188 3.66745 12.615 2.20088 11.0194C0.733627 9.42382 0 7.64543 0 5.68421C0 4.0554 0.557598 2.70083 1.67279 1.6205C2.78799 0.540166 4.18627 0 5.86765 0C6.7598 0 7.60907 0.174515 8.41544 0.523546C9.22181 0.872576 9.91667 1.37119 10.5 2.01939C11.0833 1.37119 11.7741 0.872576 12.5722 0.523546C13.3697 0.174515 14.223 0 15.1324 0C16.7966 0 18.1904 0.540166 19.3138 1.6205C20.4379 2.70083 21 4.0554 21 5.68421C21 7.64543 20.2664 9.42781 18.7991 11.0314C17.3326 12.6356 15.6814 14.2438 13.8456 15.856L12.0699 17.4017C11.6238 17.8006 11.1005 18 10.5 18C9.89951 18 9.37623 17.8006 8.93015 17.4017Z" fill="#F45151"/>
</svg>
