<svg
  width="40"
  height="40"
  viewBox="0 0 28 29"
  fill="none"
  xmlns="http://www.w3.org/2000/svg"
>
  <path
    d="M10.2391 14.58L8.61399 13.8591C8.39731 13.7706 8.26802 13.6062 8.22613 13.3659C8.18376 13.1256 8.24683 12.9169 8.41536 12.7398L10.5461 10.4823C10.7025 10.3305 10.8831 10.2197 11.0878 10.1499C11.2924 10.0806 11.5091 10.0713 11.7378 10.1218L12.7129 10.3305C12.123 11.0767 11.6475 11.7533 11.2864 12.3604C10.9252 12.9675 10.5761 13.7073 10.2391 14.58ZM20.0619 7.52283C20.1462 7.52283 20.2305 7.54483 20.3147 7.58885C20.399 7.63336 20.4772 7.69357 20.5495 7.76945C20.6096 7.83269 20.6609 7.90857 20.7033 7.9971C20.7452 8.08563 20.7661 8.17416 20.7661 8.26269C20.7782 9.43889 20.5405 10.5928 20.0533 11.7245C19.5655 12.8567 18.8762 13.8907 17.9854 14.8266C17.3835 15.459 16.7997 15.9712 16.2339 16.3633C15.6681 16.7553 15 17.1348 14.2296 17.5015C14.0972 17.5648 13.9559 17.5933 13.8056 17.5873C13.6549 17.5807 13.5254 17.5205 13.4171 17.4067L11.3586 15.263C11.2503 15.1365 11.1961 14.9974 11.1961 14.8456C11.1961 14.6938 11.2262 14.5421 11.2864 14.3903C11.6234 13.5935 11.9785 12.8946 12.3517 12.2936C12.7249 11.6931 13.2124 11.0767 13.8143 10.4443C14.7051 9.50845 15.6893 8.78755 16.7669 8.28166C17.8441 7.77577 18.9424 7.52283 20.0619 7.52283ZM15.7825 12.7588C16.0353 13.0117 16.3362 13.1382 16.6853 13.1382C17.0344 13.1382 17.3354 13.0117 17.5882 12.7588C17.8289 12.4932 17.9493 12.177 17.9493 11.8103C17.9493 11.4435 17.8289 11.1336 17.5882 10.8807C17.3354 10.6151 17.0344 10.4823 16.6853 10.4823C16.3362 10.4823 16.0353 10.6151 15.7825 10.8807C15.5417 11.1336 15.4214 11.4435 15.4214 11.8103C15.4214 12.177 15.5417 12.4932 15.7825 12.7588ZM14.031 18.6018C14.8736 18.2351 15.587 17.862 16.1711 17.4826C16.7547 17.1031 17.3956 16.6036 18.0937 15.9839L18.2924 17.0083C18.3405 17.2359 18.3316 17.4606 18.2656 17.6821C18.1992 17.9032 18.0877 18.096 17.9312 18.2604L15.8005 20.5179C15.632 20.6823 15.4334 20.7423 15.2047 20.6977C14.976 20.6537 14.8195 20.5179 14.7352 20.2903L14.031 18.6018ZM8.83067 17.3877C9.17976 17.0209 9.6071 16.8345 10.1127 16.8284C10.6183 16.8219 11.0456 17.0083 11.3947 17.3877C11.7438 17.7545 11.9184 18.2002 11.9184 18.7248C11.9184 19.2499 11.7438 19.7022 11.3947 20.0816C11.1178 20.3598 10.6693 20.6031 10.0491 20.8116C9.42943 21.0205 8.63204 21.1882 7.65698 21.3147C7.76532 20.2903 7.91892 19.4492 8.11779 18.7916C8.31617 18.1339 8.5538 17.6659 8.83067 17.3877Z"
    fill="#393939"
  />
  <path
    d="M26.9173 14.4188C26.9173 21.8781 21.1817 27.8375 14.2118 27.8375C7.24199 27.8375 1.50635 21.8781 1.50635 14.4188C1.50635 6.95937 7.24199 1 14.2118 1C21.1817 1 26.9173 6.95937 26.9173 14.4188Z"
    stroke="black"
    stroke-width="1.5"
  />
</svg>