<svg width="40" height="40" viewBox="0 0 28 29" fill="none" xmlns="http://www.w3.org/2000/svg">
<path d="M9.75748 14.5365L8.022 13.7667C7.79061 13.6721 7.65254 13.4965 7.6078 13.2399C7.56255 12.9833 7.62991 12.7604 7.80989 12.5713L10.0853 10.1605C10.2524 9.9984 10.4452 9.88008 10.6638 9.80553C10.8823 9.73151 11.1137 9.72152 11.358 9.77554L12.3993 9.9984C11.7694 10.7953 11.2616 11.5179 10.8759 12.1662C10.4902 12.8145 10.1174 13.6046 9.75748 14.5365ZM20.2475 7C20.3375 7 20.4275 7.0235 20.5175 7.0705C20.6074 7.11805 20.691 7.18233 20.7681 7.26337C20.8324 7.3309 20.8872 7.41194 20.9324 7.50649C20.9772 7.60103 20.9995 7.69557 20.9995 7.79012C21.0124 9.0462 20.7586 10.2785 20.2382 11.4871C19.7173 12.6961 18.9812 13.8004 18.0299 14.7999C17.3872 15.4752 16.7637 16.0222 16.1595 16.4409C15.5553 16.8596 14.8418 17.2648 14.0191 17.6565C13.8776 17.724 13.7267 17.7545 13.5663 17.748C13.4053 17.741 13.267 17.6767 13.1513 17.5552L10.953 15.2658C10.8373 15.1308 10.7795 14.9822 10.7795 14.8201C10.7795 14.6581 10.8116 14.496 10.8759 14.3339C11.2359 13.483 11.6151 12.7367 12.0136 12.0948C12.4121 11.4536 12.9328 10.7953 13.5755 10.12C14.5268 9.12049 15.5779 8.35063 16.7287 7.81038C17.879 7.27013 19.0519 7 20.2475 7ZM15.6774 12.5916C15.9474 12.8617 16.2687 12.9968 16.6416 12.9968C17.0144 12.9968 17.3357 12.8617 17.6057 12.5916C17.8628 12.308 17.9914 11.9703 17.9914 11.5786C17.9914 11.1869 17.8628 10.856 17.6057 10.5859C17.3357 10.3023 17.0144 10.1605 16.6416 10.1605C16.2687 10.1605 15.9474 10.3023 15.6774 10.5859C15.4203 10.856 15.2917 11.1869 15.2917 11.5786C15.2917 11.9703 15.4203 12.308 15.6774 12.5916ZM13.8069 18.8315C14.7068 18.4398 15.4686 18.0414 16.0924 17.6362C16.7156 17.231 17.4 16.6975 18.1456 16.0357L18.3578 17.1297C18.4092 17.3728 18.3997 17.6127 18.3292 17.8493C18.2582 18.0854 18.1392 18.2913 17.9721 18.4668L15.6967 20.8777C15.5167 21.0533 15.3046 21.1173 15.0603 21.0698C14.8161 21.0228 14.649 20.8777 14.559 20.6346L13.8069 18.8315ZM8.2534 17.5349C8.62621 17.1432 9.08258 16.9441 9.6225 16.9377C10.1624 16.9306 10.6188 17.1297 10.9916 17.5349C11.3644 17.9266 11.5508 18.4025 11.5508 18.9628C11.5508 19.5236 11.3644 20.0066 10.9916 20.4117C10.6959 20.7089 10.2169 20.9687 9.55463 21.1913C8.89283 21.4144 8.04129 21.5935 7 21.7286C7.1157 20.6346 7.27973 19.7364 7.4921 19.0341C7.70396 18.3318 7.95773 17.832 8.2534 17.5349Z" fill="#393939"/>
<path d="M26.9173 14.4188C26.9173 21.8781 21.1817 27.8375 14.2118 27.8375C7.24199 27.8375 1.50635 21.8781 1.50635 14.4188C1.50635 6.95937 7.24199 1 14.2118 1C21.1817 1 26.9173 6.95937 26.9173 14.4188Z" stroke="black" stroke-width="2"/>
</svg>
