<svg width="20" height="18" viewBox="0 0 20 18" fill="none" xmlns="http://www.w3.org/2000/svg">
<mask id="mask0_86_163" style="mask-type:alpha" maskUnits="userSpaceOnUse" x="0" y="0" width="20" height="18">
<rect x="0.5" y="0.5" width="19" height="17" fill="#D9D9D9" stroke="black"/>
</mask>
<g mask="url(#mask0_86_163)">
<path d="M8.72965 14.9244L7.27132 13.7432C5.7991 12.5307 4.46938 11.3244 3.28215 10.1244C2.09438 8.92442 1.50049 7.58692 1.50049 6.11192C1.50049 4.88691 1.95188 3.86816 2.85465 3.05566C3.75743 2.24316 4.88938 1.83691 6.25049 1.83691C6.97271 1.83691 7.66021 1.96816 8.31299 2.23066C8.96576 2.49316 9.52826 2.86816 10.0005 3.35566C10.4727 2.86816 11.0319 2.49316 11.678 2.23066C12.3235 1.96816 13.0144 1.83691 13.7505 1.83691C15.0977 1.83691 16.226 2.24316 17.1355 3.05566C18.0455 3.86816 18.5005 4.88691 18.5005 6.11192C18.5005 7.58692 17.9066 8.92742 16.7188 10.1334C15.5316 11.3399 14.1949 12.5494 12.7088 13.7619L11.2713 14.9244C10.9102 15.2369 10.4866 15.3932 10.0005 15.3932C9.51438 15.3932 9.09076 15.2369 8.72965 14.9244ZM9.16715 5.08066C8.79215 4.59316 8.37215 4.21491 7.90715 3.94591C7.4416 3.67741 6.88938 3.54316 6.25049 3.54316C5.43104 3.54316 4.75049 3.78691 4.20882 4.27441C3.66715 4.76191 3.39632 5.37441 3.39632 6.11192C3.39632 6.76192 3.64993 7.44942 4.15715 8.17442C4.66382 8.89942 5.27132 9.60242 5.97965 10.2834C6.68799 10.9649 7.41715 11.6024 8.16715 12.1959L10.0005 13.6494C10.4727 13.2619 11.0838 12.7714 11.8338 12.1779C12.5838 11.5839 13.313 10.9464 14.0213 10.2654C14.7297 9.58392 15.3374 8.88367 15.8447 8.16467C16.3513 7.44617 16.6047 6.76192 16.6047 6.11192C16.6047 5.37441 16.3338 4.76191 15.7922 4.27441C15.2505 3.78691 14.5699 3.54316 13.7505 3.54316C13.1116 3.54316 12.5597 3.67741 12.0947 3.94591C11.6291 4.21491 11.2088 4.59316 10.8338 5.08066C10.7227 5.21816 10.5944 5.32142 10.4488 5.39042C10.3027 5.45892 10.1533 5.49317 10.0005 5.49317C9.83382 5.49317 9.67771 5.45892 9.53215 5.39042C9.38604 5.32142 9.26438 5.21816 9.16715 5.08066Z" fill="#393939"/>
</g>
</svg>
