<svg width="35" height="35" viewBox="0 0 35 35" fill="none" xmlns="http://www.w3.org/2000/svg">
<mask id="mask0_72_321" style="mask-type:alpha" maskUnits="userSpaceOnUse" x="0" y="0" width="35" height="35">
<rect width="35" height="35" fill="#D9D9D9"/>
</mask>
<g mask="url(#mask0_72_321)">
<path d="M4.375 25.7031C4.05903 25.7031 3.79799 25.6001 3.59188 25.394C3.38479 25.1869 3.28125 24.9253 3.28125 24.6094C3.28125 24.3177 3.38479 24.0625 3.59188 23.8438C3.79799 23.625 4.05903 23.5156 4.375 23.5156H30.625C30.941 23.5156 31.2025 23.625 31.4096 23.8438C31.6157 24.0625 31.7188 24.3177 31.7188 24.6094C31.7188 24.9253 31.6157 25.1869 31.4096 25.394C31.2025 25.6001 30.941 25.7031 30.625 25.7031H4.375ZM4.375 18.5938C4.05903 18.5938 3.79799 18.4902 3.59188 18.2831C3.38479 18.077 3.28125 17.816 3.28125 17.5C3.28125 17.184 3.38479 16.9225 3.59188 16.7154C3.79799 16.5093 4.05903 16.4062 4.375 16.4062H30.625C30.941 16.4062 31.2025 16.5093 31.4096 16.7154C31.6157 16.9225 31.7188 17.184 31.7188 17.5C31.7188 17.816 31.6157 18.077 31.4096 18.2831C31.2025 18.4902 30.941 18.5938 30.625 18.5938H4.375ZM4.375 11.4844C4.05903 11.4844 3.79799 11.375 3.59188 11.1563C3.38479 10.9375 3.28125 10.6823 3.28125 10.3906C3.28125 10.0747 3.38479 9.81361 3.59188 9.6075C3.79799 9.40042 4.05903 9.29688 4.375 9.29688H30.625C30.941 9.29688 31.2025 9.40042 31.4096 9.6075C31.6157 9.81361 31.7188 10.0747 31.7188 10.3906C31.7188 10.6823 31.6157 10.9375 31.4096 11.1563C31.2025 11.375 30.941 11.4844 30.625 11.4844H4.375Z" fill="#393939"/>
</g>
</svg>
