<svg width="17" height="18" viewBox="0 0 17 18" fill="none" xmlns="http://www.w3.org/2000/svg">
<path fill-rule="evenodd" clip-rule="evenodd" d="M8.50046 2.16C4.65868 2.16 1.96154 4.83775 1.96154 8.28C1.96154 10.1047 2.51707 11.6806 3.86288 12.8614L4.25 13.32V14.04C3.98122 14.718 3.33419 15.1976 2.49347 15.6212C2.14366 15.7974 1.93955 15.956 1.82536 16.0735C1.7802 16.12 1.75101 16.158 1.73246 16.1863C1.76135 16.1907 1.79761 16.1947 1.84232 16.1973C2.06017 16.2098 2.38545 16.181 2.81579 16.0753C3.67195 15.865 4.52022 15.2801 5.88462 14.4L6.53846 14.04L6.86538 13.9958C7.58425 14.04 7.92405 13.9958 8.50046 13.9958C12.3422 13.9958 15.0385 11.6323 15.0385 8.19001C15.0385 4.74775 12.3422 2.16 8.50046 2.16ZM0.000917689 8.19001C0.000917689 3.57994 3.89274 0 8.50046 0C13.1082 0 17 3.57994 17 8.19001C17 12.8001 13.1082 16.38 8.50046 16.38C7.91903 16.38 7.3504 16.3237 6.80037 16.2161C5.43238 17.0641 4.19932 17.5833 3.19987 17.8288C2.66743 17.9595 2.17497 18.0191 1.74985 17.9946C1.35742 17.972 0.874093 17.8692 0.522756 17.5152C0.190667 17.1806 -0.136302 16.5492 0.058468 15.782C0.246571 15.0411 0.854375 14.4536 1.7631 13.9958C1.94903 13.9021 2.09282 13.8 2.20522 13.6943C0.845856 12.2511 0.000917689 10.3235 0.000917689 8.19001Z" fill="#393939"/>
</svg>
