<svg width="40" height="40" viewBox="0 0 28 29" fill="none" xmlns="http://www.w3.org/2000/svg">
<path d="M26.411 14.4188C26.411 21.8781 20.6753 27.8375 13.7055 27.8375C6.73564 27.8375 1 21.8781 1 14.4188C1 6.95937 6.73564 1 13.7055 1C20.6753 1 26.411 6.95937 26.411 14.4188Z" stroke="black" stroke-width="2"/>
<path d="M14.0001 13.1668C14.6594 13.1668 15.3038 12.9713 15.852 12.605C16.4001 12.2388 16.8274 11.7182 17.0797 11.1091C17.332 10.5 17.398 9.82976 17.2694 9.18316C17.1407 8.53655 16.8233 7.94261 16.3571 7.47643C15.8909 7.01026 15.297 6.69279 14.6504 6.56417C14.0038 6.43556 13.3336 6.50157 12.7245 6.75386C12.1154 7.00615 11.5948 7.43339 11.2285 7.98156C10.8622 8.52972 10.6667 9.17419 10.6667 9.83346C10.6667 10.7175 11.0179 11.5654 11.6431 12.1905C12.2682 12.8156 13.116 13.1668 14.0001 13.1668Z" fill="#231F20"/>
<path d="M19.0001 21.5C19.2211 21.5 19.4331 21.4122 19.5893 21.256C19.7456 21.0997 19.8334 20.8877 19.8334 20.6667C19.8334 19.1196 19.2188 17.6359 18.1249 16.5419C17.0309 15.448 15.5472 14.8334 14.0001 14.8334C12.453 14.8334 10.9693 15.448 9.87529 16.5419C8.78133 17.6359 8.16675 19.1196 8.16675 20.6667C8.16675 20.8877 8.25455 21.0997 8.41083 21.256C8.56711 21.4122 8.77907 21.5 9.00008 21.5H19.0001Z" fill="#231F20"/>
</svg>
